<svg width="30" height="31" viewBox="0 0 30 31" fill="none" xmlns="http://www.w3.org/2000/svg">
<path fill-rule="evenodd" clip-rule="evenodd" d="M6.27907 15.7524C6.27907 14.7781 6.44442 13.844 6.73953 12.9679L1.57395 9.10742C0.567209 11.1079 0 13.362 0 15.7524C0 18.1408 0.566512 20.3936 1.57186 22.3926L6.73465 18.5247C6.44233 17.6526 6.27907 16.722 6.27907 15.7524Z" fill="#FBBC05"/>
<path fill-rule="evenodd" clip-rule="evenodd" d="M15.3489 6.88685C17.5116 6.88685 19.4651 7.63685 21 8.86412L25.4651 4.50049C22.7442 2.18231 19.2558 0.750488 15.3489 0.750488C9.28328 0.750488 4.07025 4.14526 1.57397 9.10549L6.73956 12.9659C7.92979 9.43003 11.3226 6.88685 15.3489 6.88685Z" fill="#EB4335"/>
<path fill-rule="evenodd" clip-rule="evenodd" d="M15.3489 24.6128C11.3226 24.6128 7.92979 22.0696 6.73956 18.5337L1.57397 22.3935C4.07025 27.3544 9.28328 30.7491 15.3489 30.7491C19.0926 30.7491 22.6668 29.4482 25.3493 27.0107L20.4461 23.301C19.0626 24.1539 17.3205 24.6128 15.3489 24.6128Z" fill="#34A853"/>
<path fill-rule="evenodd" clip-rule="evenodd" d="M30 15.7532C30 14.8668 29.8605 13.9122 29.6512 13.0259H15.3489V18.8213H23.5814C23.1698 20.7972 22.0493 22.3163 20.4461 23.305L25.3493 27.0147C28.1672 24.4552 30 20.6425 30 15.7532Z" fill="#4285F4"/>
</svg>
