<svg width="120" height="120" viewBox="0 0 120 120" fill="none" xmlns="http://www.w3.org/2000/svg">
<path d="M60 0C44.087 0 28.8258 6.33104 17.5736 17.6004C6.32141 28.8697 0 44.1541 0 60.0914C0.00212305 62.1434 0.113392 64.1939 0.333333 66.234C1.89327 80.9936 8.85194 94.6529 19.8686 104.58C30.8853 114.507 45.1805 120 60 120C74.8195 120 89.1147 114.507 100.131 104.58C111.148 94.6529 118.107 80.9936 119.667 66.234C119.887 64.1939 119.998 62.1434 120 60.0914C120 44.1541 113.679 28.8697 102.426 17.6004C91.1742 6.33104 75.913 0 60 0ZM96.1333 89.6029C96.0667 89.6029 95.7333 90.137 95.6667 90.137C91.3023 95.3623 85.8465 99.5651 79.6839 102.449C73.5213 105.333 66.8021 106.827 60 106.827C53.1979 106.827 46.4787 105.333 40.3161 102.449C34.1535 99.5651 28.6977 95.3623 24.3333 90.137C24.2667 90.137 23.9333 89.6029 23.8667 89.6029C23.5006 89.0708 23.2925 88.4458 23.2667 87.8001C23.2791 87.0997 23.502 86.4192 23.9064 85.8475C24.3107 85.2758 24.8777 84.8394 25.5333 84.5953C30.4667 82.9261 35.2 81.3236 36.5333 80.9898C36.5023 80.8392 36.5042 80.6837 36.5387 80.5339C36.5732 80.3841 36.6396 80.2436 36.7333 80.1218C36.9081 79.4755 37.2767 78.8985 37.7894 78.4686C38.302 78.0388 38.934 77.7769 39.6 77.7182L48.0667 77.0505C47.9953 75.2259 47.5648 73.4333 46.8 71.7758V71.709C46.0856 69.823 45.0727 68.0645 43.8 66.5011C40.3137 61.9461 38.4586 56.349 38.5333 50.6103C38.1646 44.7088 40.1234 38.8981 43.9882 34.428C47.8531 29.9579 53.3153 27.1856 59.2 26.7073H60.8C66.6847 27.1856 72.1469 29.9579 76.0118 34.428C79.8766 38.8981 81.8354 44.7088 81.4667 50.6103C81.5414 56.349 79.6863 61.9461 76.2 66.5011C74.9273 68.0645 73.9144 69.823 73.2 71.709V71.7758C72.4352 73.4333 72.0047 75.2259 71.9333 77.0505L80.4 77.7182C81.066 77.7769 81.698 78.0388 82.2106 78.4686C82.7233 78.8985 83.0919 79.4755 83.2667 80.1218C83.3604 80.2436 83.4268 80.3841 83.4613 80.5339C83.4958 80.6837 83.4977 80.8392 83.4667 80.9898C84.8 81.3236 89.5333 82.9261 94.4667 84.5953C94.9555 84.7524 95.4004 85.0226 95.7654 85.3841C96.1305 85.7456 96.4053 86.1881 96.5676 86.6759C96.73 87.1636 96.7752 87.6828 96.6998 88.1914C96.6243 88.6999 96.4303 89.1835 96.1333 89.6029Z" fill="#494C4E"/>
<circle cx="60" cy="60" r="60" fill="white" fill-opacity="0.8"/>
</svg>
